<svg width="510" height="355" viewBox="0 0 510 355" fill="none" xmlns="http://www.w3.org/2000/svg">
<path opacity="0.5" d="M477.443 267.073C485.125 218.549 467.33 179.179 431.926 147.718C402.726 121.772 423.048 81.1617 387.497 43.3714C342.239 -4.74629 254.943 -12.3608 217.029 18.2099C185.133 43.9242 144.962 13.2859 105.119 51.3976C70.0304 84.9576 104.42 146.736 65.1008 193.308C-3.28265 274.304 62.5006 352.056 113.991 352.056C135.424 352.056 365.872 352.056 383.357 352.056C429.67 352.05 471.205 306.493 477.443 267.073Z" fill="white"/>
<path d="M387.491 156.178H352.634L359.854 177.047L322.571 156.178H237.458C233.719 156.178 230.69 153.149 230.69 149.41V43.3714C230.69 39.6319 233.719 36.603 237.458 36.603H387.491C391.231 36.603 394.26 39.6319 394.26 43.3714V149.41C394.26 153.149 391.231 156.178 387.491 156.178Z" fill="white"/>
<path d="M359.854 177.893C359.712 177.893 359.571 177.86 359.442 177.786L322.351 157.024H256.382C255.913 157.024 255.535 156.646 255.535 156.178C255.535 155.71 255.913 155.332 256.382 155.332H322.571C322.718 155.332 322.859 155.372 322.983 155.439L358.325 175.22L351.827 156.455C351.737 156.195 351.782 155.907 351.94 155.687C352.098 155.462 352.357 155.332 352.628 155.332H387.491C390.757 155.332 393.414 152.675 393.414 149.41V43.3714C393.414 40.1057 390.757 37.4491 387.491 37.4491H237.458C234.192 37.4491 231.536 40.1057 231.536 43.3714V124.592C231.536 125.06 231.158 125.438 230.69 125.438C230.222 125.438 229.844 125.06 229.844 124.592V43.3714C229.844 39.175 233.262 35.757 237.458 35.757H387.491C391.688 35.757 395.106 39.175 395.106 43.3714V149.41C395.106 153.606 391.688 157.024 387.491 157.024H353.818L360.654 176.771C360.767 177.104 360.666 177.47 360.395 177.696C360.243 177.826 360.045 177.893 359.854 177.893Z" fill="#003C51"/>
<path d="M368.071 100.435H265.259C263.923 100.435 262.84 99.3517 262.84 98.015V68.3017C262.84 66.9649 263.923 65.882 265.259 65.882H368.071C369.408 65.882 370.491 66.9649 370.491 68.3017V98.015C370.491 99.3517 369.408 100.435 368.071 100.435Z" fill="#F9F9F9"/>
<path d="M366.379 98.7426H260.747C259.41 98.7426 258.327 97.6596 258.327 96.3229V64.9626C258.327 63.6258 259.41 62.5429 260.747 62.5429H366.379C367.716 62.5429 368.799 63.6258 368.799 64.9626V96.3229C368.799 97.6596 367.716 98.7426 366.379 98.7426Z" fill="#E6F4F1"/>
<mask id="mask0_2307_10239" style="mask-type:alpha" maskUnits="userSpaceOnUse" x="258" y="62" width="111" height="37">
<path d="M366.379 98.7426H260.747C259.41 98.7426 258.327 97.6596 258.327 96.3229V64.9626C258.327 63.6258 259.41 62.5429 260.747 62.5429H366.379C367.716 62.5429 368.799 63.6258 368.799 64.9626V96.3229C368.799 97.6596 367.716 98.7426 366.379 98.7426Z" fill="#E6F4F1"/>
</mask>
<g mask="url(#mask0_2307_10239)">
<path opacity="0.05" d="M311.883 133C297.961 133 284.038 133 270.116 133C261.338 133 255.01 126.71 255.01 117.929C255.01 116.009 254.969 114.09 255.051 112.17C255.051 111.68 255.337 111.067 255.664 110.781C264.891 103.062 274.158 95.3834 283.426 87.664C284.733 86.5612 285.631 86.5612 286.937 87.6231C291.224 91.1765 295.511 94.7707 299.839 98.3241C302.002 100.121 303.554 100.039 305.554 98.0381C316.088 87.4597 326.621 76.9222 337.195 66.3438C339.033 64.5058 340.013 64.5466 341.687 66.5071C350.505 76.7179 359.324 86.9288 368.143 97.0988C368.714 97.7523 369 98.4466 369 99.3452C368.959 105.553 369 111.802 368.959 118.011C368.959 126.628 362.59 132.959 353.976 132.959C339.931 133 325.927 133 311.883 133Z" fill="black"/>
<path opacity="0.05" d="M304 77C304 79.7801 301.711 82.0214 298.968 81.9998C296.225 81.9567 293.979 79.6939 294 76.9784C294 74.2199 296.29 71.9786 299.054 72.0002C301.819 72.0433 304 74.2414 304 77Z" fill="black"/>
</g>
<path d="M386.126 36.603H238.829C234.333 36.603 230.69 40.2354 230.69 44.7195V54.6521H394.254L394.26 44.7195C394.26 40.2354 390.622 36.603 386.126 36.603Z" fill="#003C51"/>
<path d="M384.671 43.6534C383.582 43.6534 382.697 44.539 382.697 45.6276C382.697 46.7161 383.582 47.6017 384.671 47.6017C385.759 47.6017 386.645 46.7161 386.645 45.6276C386.645 44.539 385.765 43.6534 384.671 43.6534Z" fill="white"/>
<path d="M375.082 43.6534C373.994 43.6534 373.108 44.539 373.108 45.6276C373.108 46.7161 373.994 47.6017 375.082 47.6017C376.171 47.6017 377.056 46.7161 377.056 45.6276C377.056 44.539 376.176 43.6534 375.082 43.6534Z" fill="white"/>
<path d="M365.494 43.6534C364.405 43.6534 363.52 44.539 363.52 45.6276C363.52 46.7161 364.405 47.6017 365.494 47.6017C366.582 47.6017 367.468 46.7161 367.468 45.6276C367.468 44.539 366.588 43.6534 365.494 43.6534Z" fill="white"/>
<path d="M330.981 105.314H305.204V107.203H330.981V105.314Z" fill="#003C51"/>
<path d="M315.425 110.255H258.327V112.15H315.425V110.255Z" fill="#0B89A1"/>
<path d="M303.45 105.314H258.327V107.203H303.45V105.314Z" fill="#003C51"/>
<path d="M269.89 114.733H258.327V116.622H269.89V114.733Z" fill="#0B89A1"/>
<path d="M370.491 114.733H352.583V116.622H370.491V114.733Z" fill="#0B89A1"/>
<path d="M303.377 114.733H273.505V116.622H303.377V114.733Z" fill="#003C51"/>
<path d="M276.444 119.211H258.327V121.107H276.444V119.211Z" fill="#0B89A1"/>
<path d="M293.061 119.211H279.828V121.107H293.061V119.211Z" fill="#0B89A1"/>
<path d="M350.327 110.255H317.263V112.15H350.327V110.255Z" fill="#0B89A1"/>
<path d="M370.491 110.255H352.583V112.15H370.491V110.255Z" fill="#0B89A1"/>
<path d="M357.992 105.314H332.216V107.203H357.992V105.314Z" fill="#003C51"/>
<path d="M370.491 105.314H359.543V107.203H370.491V105.314Z" fill="#0B89A1"/>
<path d="M316.767 114.733H305.204V116.622H316.767V114.733Z" fill="#0B89A1"/>
<path d="M350.254 114.733H320.382V116.622H350.254V114.733Z" fill="#003C51"/>
<path d="M313.817 119.211H295.7V121.107H313.817V119.211Z" fill="#0B89A1"/>
<path d="M330.433 119.211H317.201V121.107H330.433V119.211Z" fill="#0B89A1"/>
<path d="M330.981 128.326H305.204V130.216H330.981V128.326Z" fill="#003C51"/>
<path d="M315.425 133.267H258.327V135.162H315.425V133.267Z" fill="#0B89A1"/>
<path d="M303.45 128.326H258.327V130.216H303.45V128.326Z" fill="#003C51"/>
<path d="M269.89 137.746H258.327V139.635H269.89V137.746Z" fill="#0B89A1"/>
<path d="M370.491 137.746H352.583V139.635H370.491V137.746Z" fill="#0B89A1"/>
<path d="M303.377 137.746H273.505V139.635H303.377V137.746Z" fill="#003C51"/>
<path d="M276.444 142.23H258.327V144.125H276.444V142.23Z" fill="#0B89A1"/>
<path d="M293.061 142.23H279.828V144.125H293.061V142.23Z" fill="#0B89A1"/>
<path d="M350.327 133.267H317.263V135.162H350.327V133.267Z" fill="#0B89A1"/>
<path d="M370.491 133.267H352.583V135.162H370.491V133.267Z" fill="#0B89A1"/>
<path d="M357.992 128.326H332.216V130.216H357.992V128.326Z" fill="#003C51"/>
<path d="M370.491 128.326H359.543V130.216H370.491V128.326Z" fill="#0B89A1"/>
<path d="M316.767 137.746H305.204V139.635H316.767V137.746Z" fill="#0B89A1"/>
<path d="M350.254 137.746H320.382V139.635H350.254V137.746Z" fill="#003C51"/>
<path d="M313.817 142.23H295.7V144.125H313.817V142.23Z" fill="#0B89A1"/>
<path d="M330.433 142.23H317.201V144.125H330.433V142.23Z" fill="#0B89A1"/>
<path d="M326.13 186.907V187.623H323.953V186.67H325.893C326.023 186.67 326.13 186.777 326.13 186.907Z" fill="#003C51"/>
<path d="M328.651 186.907V187.623H326.474V186.67H328.414C328.55 186.67 328.651 186.777 328.651 186.907Z" fill="#003C51"/>
<path d="M331.178 186.907V187.623H329.001V186.67H330.941C331.071 186.67 331.178 186.777 331.178 186.907Z" fill="#003C51"/>
<path d="M341.692 186.907V187.623H339.514V186.67H341.455C341.59 186.67 341.692 186.777 341.692 186.907Z" fill="#003C51"/>
<path d="M344.218 186.907V187.623H342.041V186.67H343.982C344.111 186.67 344.218 186.777 344.218 186.907Z" fill="#003C51"/>
<path d="M373.847 186.907V187.623H371.67V186.67H373.61C373.74 186.67 373.847 186.777 373.847 186.907Z" fill="#003C51"/>
<path d="M376.368 186.907V187.623H374.191V186.67H376.131C376.261 186.67 376.368 186.777 376.368 186.907Z" fill="#003C51"/>
<path d="M339.097 186.907V187.623H331.618V186.67H338.86C338.99 186.67 339.097 186.777 339.097 186.907Z" fill="#003C51"/>
<path d="M384.564 186.907V187.623H377.085V186.67H384.327C384.457 186.67 384.564 186.777 384.564 186.907Z" fill="#003C51"/>
<path d="M371.083 186.907V187.623H345.11V186.67H370.846C370.982 186.67 371.083 186.777 371.083 186.907Z" fill="#003C51"/>
<path d="M365.889 187.623L366.594 190.483H318.871C318.482 190.483 318.166 190.167 318.166 189.778V187.623H365.889Z" fill="#0A7C92"/>
<path d="M379.313 138.631H444.222C445.13 138.631 445.795 139.483 445.57 140.363L433.629 187.623H365.889L377.401 140.114C377.621 139.246 378.41 138.631 379.313 138.631Z" fill="#0D7F95"/>
<path d="M379.313 138.631H441.966C441.966 138.631 431.029 167.363 417.909 176.026C403.837 185.316 365.889 187.623 365.889 187.623L377.401 140.114C377.621 139.246 378.41 138.631 379.313 138.631Z" fill="#0B89A1"/>
<path d="M433.623 190.133C433.623 190.33 433.466 190.488 433.268 190.488H362.894V187.629H433.629V190.133H433.623Z" fill="#0C6D80"/>
<path d="M375.128 142.562C375.63 140.633 376.966 138.631 379.313 138.631L365.894 187.623H362.894C362.894 187.623 372.42 152.958 375.128 142.562Z" fill="#0A7C92"/>
<path d="M84.1594 197.307H126.242L119.344 209.919H84.1594V197.307Z" fill="#003C51"/>
<path d="M114.465 209.919H72.3768L77.4813 197.307H114.465V209.919Z" fill="#003C51"/>
<path d="M145.887 354.154L99.834 202.711L105.61 201.025L151.77 354.154H145.887Z" fill="#003C51"/>
<path d="M50.1145 354.154L81.8922 201.025L87.6622 202.711L55.9974 354.154H50.1145Z" fill="#003C51"/>
<path d="M387.063 197.307H429.151L422.253 209.919H387.063V197.307Z" fill="#D8CDC0"/>
<path d="M417.374 209.919H375.286L380.39 197.307H417.374V209.919Z" fill="#003C51"/>
<path d="M435.434 354.154L402.743 202.711L408.513 201.025L441.317 354.154H435.434Z" fill="#003C51"/>
<path d="M339.661 354.154L384.795 201.025L390.571 202.711L345.544 354.154H339.661Z" fill="#003C51"/>
<path d="M437.831 190.849H70.9159V198.582H437.831V190.849Z" fill="white"/>
<path d="M437.831 199.146H70.916C70.6057 199.146 70.3519 198.892 70.3519 198.582V190.849C70.3519 190.539 70.6057 190.285 70.916 190.285H437.831C438.141 190.285 438.395 190.539 438.395 190.849V198.582C438.395 198.892 438.141 199.146 437.831 199.146ZM71.48 198.018H437.267V191.413H71.48V198.018Z" fill="#003C51"/>
<path d="M237.379 318.704L215.483 317.486C215.483 317.486 212.579 332.236 210.407 339.579C208.235 346.923 207.88 353.477 212.753 353.404C217.627 353.33 237.582 353.471 246.877 353.787C256.173 354.098 278.548 353.297 278.548 353.297C278.548 353.297 274.188 343.561 262.501 343.742C252.602 343.894 237.272 336.178 237.379 318.704Z" fill="#FEF8EC"/>
<path d="M223.47 350.99C223.284 338.835 211.451 337.695 210.949 337.65L211.016 336.844C211.146 336.855 224.079 338.085 224.282 350.978L223.47 350.99Z" fill="#D8CDC0"/>
<path d="M221.772 343.2L221.079 342.783C221.146 342.676 227.762 331.982 240.972 331.7L240.989 332.506C228.236 332.777 221.834 343.093 221.772 343.2Z" fill="#D8CDC0"/>
<path d="M223.724 347.278L223.194 346.556C223.261 346.438 229.725 334.988 243.617 334.689L244.119 335.496C230.673 335.789 223.786 347.171 223.724 347.278Z" fill="#D8CDC0"/>
<path d="M255.597 350.104C255.496 343.584 261.351 342.918 261.413 342.913L261.492 343.714C261.283 343.736 256.314 344.323 256.404 350.087L255.597 350.104Z" fill="#D8CDC0"/>
<path d="M252.241 354.419C250.2 354.419 248.355 354.397 246.861 354.346C237.639 354.036 217.666 353.889 212.765 353.962C211.349 353.99 210.215 353.488 209.454 352.49C207.401 349.788 208.546 343.889 209.866 339.416C212.003 332.179 214.897 317.52 214.931 317.373C214.987 317.097 215.224 316.905 215.517 316.922L237.413 318.14C237.712 318.157 237.949 318.406 237.943 318.704C237.904 325.428 240.25 331.333 244.734 335.772C250.262 341.249 257.549 343.172 262.236 343.172C262.326 343.172 262.411 343.172 262.496 343.172C274.402 342.975 279.022 352.958 279.067 353.06C279.146 353.229 279.129 353.426 279.033 353.59C278.932 353.748 278.762 353.849 278.576 353.855C278.384 353.861 262.732 354.419 252.241 354.419ZM216.51 352.817C224.248 352.817 239.257 352.964 246.9 353.218C255.016 353.488 273.381 352.902 277.64 352.755C276.359 350.505 271.898 344.142 262.512 344.295C256.077 344.407 248.784 341.362 243.939 336.567C239.353 332.027 236.9 326.043 236.815 319.229L215.94 318.067C215.421 320.673 212.878 333.194 210.949 339.732C209.183 345.699 208.974 349.986 210.351 351.802C210.886 352.513 211.659 352.857 212.748 352.829C213.594 352.823 214.891 352.817 216.51 352.817Z" fill="#003C51"/>
<path d="M252.083 140.876C251.463 137.977 252.828 134.908 250.724 132.427C248.981 130.368 248.507 128.569 247.926 126.899C251.677 125.828 257.391 123.442 260.826 120.774C263.674 118.557 264.43 116.47 262.687 116.978C258.722 118.14 246.883 120.255 242.382 122.347C242.343 122.364 242.309 122.387 242.275 122.415C238.936 123.402 235.241 128.112 233.859 130.103C231.801 133.075 225.709 141.66 224.023 144.035C211.445 153.11 184.27 154.966 179.453 158.322C163.998 169.1 179.216 195.221 196.396 189.225C210.08 184.453 220.599 166.664 229.889 155.546L229.894 155.558C234.717 149.765 241.491 150.075 245.422 148.355C249.353 146.646 252.709 143.775 252.083 140.876Z" fill="#F5D6C9"/>
<path d="M208.974 350.268C209.431 352.699 210.92 353.432 212.753 353.404C217.627 353.33 237.582 353.471 246.877 353.787C256.173 354.098 278.548 353.297 278.548 353.297C278.548 353.297 277.865 351.774 276.314 349.946L208.974 350.268Z" fill="#003C51"/>
<path d="M274.453 313.047L253.178 314.553C253.178 314.553 254.385 324.458 251.429 331.519C248.468 338.581 247.402 345.062 252.253 345.519C257.104 345.975 276.924 348.299 286.129 349.625C295.334 350.95 317.664 352.592 317.664 352.592C317.664 352.592 314.393 342.439 302.756 341.339C292.897 340.414 278.368 326.719 274.453 313.047Z" fill="#FEF8EC"/>
<path d="M263.968 344.362L263.161 344.289C264.301 332.174 252.292 329.686 252.168 329.664L252.32 328.868C252.456 328.891 265.18 331.525 263.968 344.362Z" fill="#D8CDC0"/>
<path d="M262.332 336.359L261.689 335.868C261.768 335.766 269.501 325.851 282.671 327.024L282.598 327.83C269.884 326.702 262.405 336.257 262.332 336.359Z" fill="#D8CDC0"/>
<path d="M263.838 340.6L263.376 339.85C263.455 339.743 271.616 329.116 285.458 330.34L285.384 331.147C272.011 329.974 263.917 340.493 263.838 340.6Z" fill="#D8CDC0"/>
<path d="M295.819 347.29L295.012 347.216C295.621 340.73 301.493 340.73 301.572 340.702L301.566 341.514H301.561C301.273 341.508 296.355 341.599 295.819 347.29Z" fill="#D8CDC0"/>
<path d="M317.664 353.156C317.652 353.156 317.636 353.156 317.624 353.156C317.399 353.139 295.17 351.497 286.05 350.183C276.878 348.863 257.053 346.534 252.202 346.077C250.769 345.942 249.715 345.327 249.072 344.25C247.329 341.339 249.111 335.603 250.91 331.299C253.776 324.458 252.631 314.717 252.619 314.621C252.602 314.469 252.648 314.311 252.743 314.192C252.839 314.074 252.986 314 253.138 313.989L274.414 312.483C274.662 312.455 274.921 312.635 274.995 312.889C278.999 326.877 293.636 339.912 302.813 340.781C314.68 341.898 318.166 352.315 318.205 352.417C318.262 352.597 318.228 352.789 318.109 352.936C318.002 353.077 317.839 353.156 317.664 353.156ZM253.798 315.072C254.012 317.34 254.548 325.529 251.948 331.734C249.545 337.476 248.863 341.711 250.036 343.669C250.493 344.43 251.237 344.853 252.303 344.955C257.165 345.411 277.025 347.741 286.208 349.066C294.245 350.223 312.565 351.644 316.812 351.966C315.785 349.591 312.052 342.789 302.7 341.909C292.339 340.933 278.012 326.759 274.036 313.645L253.798 315.072Z" fill="#003C51"/>
<path d="M248.835 341.982C249.021 344.447 250.425 345.344 252.247 345.513C257.098 345.97 276.918 348.294 286.123 349.619C295.328 350.945 317.658 352.586 317.658 352.586C317.658 352.586 317.145 350.995 315.808 349.01L248.835 341.982Z" fill="#003C51"/>
<path d="M159.131 80.1803C158.973 72.1202 167.253 71.9172 167.253 71.9172C157.021 49.9763 142.937 60.6196 138.493 70.6368C131.77 85.7868 135.571 103.943 140.755 106.199L142.875 102.826L143.597 107.423C146.491 109.504 155.109 114.88 157.348 114.389C157.343 114.383 159.136 80.6766 159.131 80.1803Z" fill="#003C51"/>
<path d="M179.989 104.197L176.131 118.929C175.008 120.125 169.227 118.354 160.061 111.056L165.313 98.0884C165.313 98.0884 170.716 100.982 179.989 104.197Z" fill="#F5D6C9"/>
<path d="M178.815 108.681L177.501 113.695C170.282 110.695 167.067 103.56 168.099 103.176C178.815 108.681 178.815 108.681 178.815 108.681Z" fill="#F2B2A5"/>
<path d="M180.716 110.694C176.035 110.661 167.49 104.281 165.595 100C164.918 98.4719 166.881 74.4159 171.647 72.7294C173.655 72.0243 186.114 74.1959 188.004 74.1959C192.324 74.1959 192.375 85.0197 192.409 91.2353C192.454 98.2124 188.974 110.751 180.716 110.694Z" fill="#F5D6C9"/>
<path d="M164.794 105.167C166.463 104.462 168.178 103.858 169.915 103.339C172.295 98.9908 177.287 89.9888 178.928 87.868C180.553 85.7642 183.051 98.4775 183.051 98.4775C186.272 91.1789 185.347 84.0383 188.765 82.3856C192.42 80.6202 197.722 68.7417 183.756 68.7417C176.198 68.7417 167.072 63.2085 160.394 72.2782C151.059 84.9407 166.288 101.033 164.794 105.167Z" fill="#003C51"/>
<path d="M180.463 89.5771C181.202 91.8783 179.932 94.3432 177.631 95.0764C175.33 95.8153 172.865 94.5462 172.126 92.245C171.387 89.9437 172.656 87.4789 174.958 86.74C177.265 86.0068 179.724 87.2758 180.463 89.5771Z" fill="#F5D6C9"/>
<path d="M176.176 94.157C175.674 94.157 175.155 93.9822 174.8 93.8017L175.166 93.0797C175.178 93.0854 176.402 93.6776 176.757 93.0741C176.859 92.8992 176.864 92.8936 176.588 92.6341C176.255 92.3183 175.759 91.8445 175.962 90.8574C176.097 90.1806 176.458 89.7801 176.723 89.4868C177.095 89.0751 177.18 88.9736 176.644 88.308C176.492 88.1219 176.317 88.0316 176.097 88.026H176.091C175.217 88.026 173.971 89.2894 173.559 89.7801L172.938 89.2612C173.113 89.0525 174.681 87.2194 176.091 87.2194C176.097 87.2194 176.097 87.2194 176.103 87.2194C176.565 87.2251 176.971 87.4225 177.27 87.8004C178.167 88.9115 177.84 89.4417 177.321 90.0227C177.084 90.2821 176.842 90.5529 176.751 91.0154C176.639 91.5625 176.864 91.7768 177.146 92.0419C177.423 92.307 177.891 92.7469 177.456 93.4802C177.157 93.9878 176.672 94.157 176.176 94.157Z" fill="#003C51"/>
<path d="M189.73 188.097C154.805 155.304 120.015 135.625 112.017 144.142C104.019 152.659 125.847 186.145 160.766 218.944C195.691 251.737 230.481 271.416 238.479 262.899C246.477 254.376 224.655 220.89 189.73 188.097Z" fill="#003C51"/>
<path d="M232.85 265.68C219.127 265.68 190.057 247.608 160.186 219.559C124.381 185.937 102.953 152.557 111.397 143.561C115.559 139.127 126.141 141.378 141.189 149.889C155.921 158.226 173.367 171.571 190.305 187.476C226.11 221.098 247.537 254.478 239.094 263.469C237.701 264.963 235.574 265.68 232.85 265.68ZM117.703 142.991C115.435 142.991 113.721 143.561 112.638 144.717C105.102 152.743 127.41 186.45 161.347 218.318C195.291 250.191 230.329 270.333 237.864 262.312C245.4 254.286 223.092 220.58 189.149 188.712C172.307 172.896 154.98 159.63 140.36 151.361C130.613 145.851 122.779 142.991 117.703 142.991Z" fill="#003C51"/>
<path d="M129.339 354.154C131.939 353.15 134.573 350.589 137.207 349.715C139.846 348.875 142.492 348.04 145.148 347.273C147.799 346.472 150.473 345.755 153.135 345.017C155.803 344.283 158.482 345.293 161.161 344.616L161.534 344.526L161.917 344.616C164.743 345.276 167.557 345.964 170.366 346.675C173.164 347.431 175.984 348.124 178.77 348.931L182.956 350.121L187.129 351.379C189.899 352.264 192.674 353.139 195.409 354.16C192.505 353.855 189.634 353.398 186.757 352.953L182.465 352.219L178.184 351.418C175.33 350.894 172.498 350.262 169.656 349.687C166.824 349.066 163.993 348.429 161.173 347.758L161.928 347.752C159.244 348.406 156.553 350.178 153.851 350.775C151.15 351.362 148.454 351.982 145.735 352.507C143.028 353.071 140.298 353.562 137.568 354.047C134.843 354.498 132.108 353.827 129.339 354.154Z" fill="#FEF8EC"/>
<path d="M129.339 354.154C131.939 353.15 134.573 352.281 137.207 351.407C139.846 350.567 142.492 349.732 145.148 348.965C147.799 348.164 150.473 347.448 153.135 346.709C155.803 345.975 158.482 345.293 161.161 344.616L161.534 344.526L161.917 344.616C164.743 345.276 167.557 345.964 170.366 346.675C173.164 347.431 175.984 348.124 178.77 348.931L182.956 350.121L187.129 351.379C189.899 352.264 192.674 353.139 195.409 354.16C192.505 353.855 189.634 353.398 186.757 352.953L182.465 352.219L178.184 351.418C175.33 350.894 172.498 350.262 169.656 349.687C166.824 349.066 163.993 348.429 161.173 347.758L161.928 347.752C159.244 348.406 156.553 349.049 153.851 349.647C151.15 350.234 148.454 350.854 145.735 351.379C143.028 351.943 140.298 352.434 137.568 352.919C134.843 353.37 132.108 353.827 129.339 354.154Z" fill="#003C51"/>
<path d="M156.418 354.154C156.621 353.285 156.92 352.484 157.236 351.7C157.557 350.916 157.918 350.166 158.302 349.427C159.08 347.961 159.954 346.562 160.919 345.231L162.182 343.488L163.508 345.203C164.534 346.528 165.465 347.921 166.294 349.394C166.706 350.132 167.095 350.888 167.445 351.678C167.789 352.473 168.11 353.28 168.336 354.16C167.546 353.708 166.847 353.189 166.175 352.654C165.504 352.112 164.878 351.542 164.269 350.95C163.062 349.766 161.957 348.502 160.947 347.171L163.536 347.137C162.56 348.463 161.505 349.726 160.343 350.916C159.757 351.509 159.153 352.084 158.505 352.631C157.856 353.167 157.185 353.691 156.418 354.154Z" fill="#003C51"/>
<path d="M156.909 215.261C151.404 218.024 117.268 270.807 178.613 270.807C192.42 270.807 211.862 254.546 213.346 258.054C219.381 272.296 196.272 294.457 206.91 321.412C216.719 322.805 241.655 319.957 244.571 321.468C253.482 317.119 258.491 311.637 260.493 301.169C263.02 287.857 268.835 263.593 269.377 235.075C270.375 181.921 164.867 211.944 156.909 215.261Z" fill="#0D7F95"/>
<path d="M156.908 346.184C158.189 345.395 158.663 344.605 158.894 343.815C159.046 343.026 159.052 342.236 159.136 341.446L159.531 336.714C159.808 333.555 160.044 330.402 160.231 327.244C160.614 320.932 160.733 313.324 160.704 307.012C160.687 300.7 160.518 294.389 160.129 288.072C159.706 281.76 159.153 275.449 158.037 269.132H166.294C165.177 275.443 164.624 281.76 164.201 288.072C163.812 294.383 163.643 300.695 163.626 307.012C163.592 313.324 163.716 320.932 164.1 327.244C164.286 330.402 164.523 333.555 164.799 336.714L165.194 341.446C165.279 342.236 165.284 343.026 165.437 343.815C165.668 344.605 166.142 345.395 167.422 346.184H156.908Z" fill="#003C51"/>
<path d="M231.034 285.889C232.878 308.321 236.511 321.925 251.057 326.144C257.335 322.461 278.627 316.46 282.395 315.664C293.574 298.134 278.836 272.493 274.453 253.254C265.101 212.204 248.338 206.366 224.948 208.295C197.254 211.121 179.019 212.142 155.183 226.028C147.551 230.473 136.163 248.962 139.164 257.456C150.524 289.595 213.487 274.039 234.954 266.548C231.034 272.239 230.38 277.885 231.034 285.889Z" fill="#0D7F95"/>
<path d="M231.034 285.889C232.562 304.502 235.326 317.041 244.531 323.177C246.421 324.435 281.797 306.521 274.453 253.248C265.101 212.198 248.338 206.36 224.948 208.289C197.254 211.115 179.019 212.136 155.183 226.022C147.551 230.467 136.163 248.956 139.164 257.45C150.524 289.589 213.487 274.033 234.954 266.543C231.034 272.239 230.38 277.885 231.034 285.889Z" fill="#0B89A1"/>
<path d="M194.93 184.47C198.686 163.578 185.685 123.904 184.467 122.026C182.961 119.708 180.372 117.13 177.123 114.902C169.407 115.782 162.425 110.379 161.127 109.014C136.699 116.115 107.561 158.863 107.561 188.193C107.561 223.304 115.683 252.978 134.415 264.822C134.415 264.822 163.361 240.665 174.365 222.926C177.118 219.209 188.912 205.779 181.856 207.37C182.205 206.919 183.322 204.961 181.162 205.063C181.737 203.501 193.65 191.583 194.93 184.47Z" fill="#F2E6D6"/>
<path d="M194.93 184.47C198.687 163.578 185.686 123.904 184.467 122.026C182.961 119.708 180.372 117.13 177.124 114.902C169.408 115.782 162.425 110.379 161.128 109.014C144.015 113.988 124.589 136.454 114.493 159.545C113.049 162.845 151.59 202.373 183.012 211.171C184.479 208.537 184.71 206.721 181.856 207.364C182.205 206.913 183.322 204.956 181.162 205.057C181.737 203.501 193.65 191.583 194.93 184.47Z" fill="#FEF8EC"/>
<path d="M177.721 172.281C179.994 173.596 192.871 180.979 195.297 181.954C195.613 178.711 195.613 177.363 195.596 174.464C185.906 166.551 177.654 162.309 170.22 153.302C169.791 158.654 172.56 169.298 177.721 172.281Z" fill="#D8CDC0"/>
<path d="M223.555 190.257C232.94 190.105 243.358 190.342 252.749 190.189C255.626 190.144 258.525 190.28 261.074 188.779C265.711 186.055 258.474 169.1 255.654 165.468C241.294 146.956 195.928 124.581 177.123 114.902C174.924 115.004 172.357 114.987 170.936 114.395C168.979 116.69 170.885 153.578 178.314 161.221C180.981 163.956 216.702 190.37 223.555 190.257Z" fill="#FEF8EC"/>
<path d="M223.515 191.103C219.917 191.103 210.683 185.536 205.477 182.203C205.083 181.949 204.97 181.424 205.224 181.035C205.477 180.64 205.996 180.527 206.391 180.776C214.846 186.185 221.231 189.411 223.51 189.411C223.521 189.411 223.532 189.411 223.549 189.411C228.253 189.338 233.29 189.355 238.163 189.377C243.025 189.4 248.056 189.422 252.743 189.343C253.037 189.338 253.33 189.338 253.618 189.332C256.156 189.309 258.553 189.281 260.651 188.052C261.136 187.764 261.463 187.189 261.627 186.343C262.62 181.182 257.307 168.976 254.994 165.987C243.296 150.904 211.456 134.113 190.39 123.002C185.059 120.187 180.434 117.751 176.954 115.771C171.844 116.29 166.463 114.332 160.953 109.95C136.789 117.361 108.419 159.517 108.419 188.187C108.419 188.655 108.041 189.033 107.572 189.033C107.104 189.033 106.726 188.655 106.726 188.187C106.726 174.284 113.371 156.189 124.493 139.787C135.605 123.402 149.215 111.591 160.902 108.196C161.167 108.117 161.455 108.179 161.675 108.354C167.039 112.719 172.211 114.637 177.039 114.056C177.219 114.034 177.4 114.073 177.558 114.163C181.044 116.154 185.742 118.63 191.185 121.501C212.381 132.68 244.413 149.579 256.336 164.949C258.925 168.282 264.408 180.866 263.297 186.659C263.037 188.007 262.439 188.965 261.514 189.507C259.027 190.968 256.291 190.996 253.64 191.024L252.777 191.035C248.073 191.114 243.036 191.092 238.163 191.069C233.301 191.047 228.27 191.024 223.583 191.103C223.555 191.103 223.532 191.103 223.515 191.103Z" fill="#003C51"/>
<path d="M234.954 266.543C198.337 309.229 148.561 289.894 128.216 270.846C84.2158 229.638 94.5715 177.549 110.601 146.922C107.939 158.508 128.904 189.016 160.772 218.938C188.816 245.284 230.977 264.811 231.039 264.845C232.337 265.42 233.645 265.979 234.954 266.543Z" fill="#F2E8C4"/>
<path d="M110.601 146.922C94.5658 177.544 84.2101 229.632 128.216 270.846C84.3229 229.514 94.5658 177.544 110.601 146.922Z" fill="#F2E6D6"/>
<path opacity="0.1" d="M216.053 257.191C185.308 280.649 145.656 287.276 128.21 270.846C148.555 289.894 198.337 309.223 234.948 266.543C233.645 265.984 232.331 265.426 231.034 264.851C231.017 264.834 225.021 262.053 216.053 257.191Z" fill="#003C51"/>
<path d="M182.245 293.018C159.024 293.018 138.515 281.647 127.635 271.461C107.725 252.814 97.0983 230.439 96.0492 204.95C94.9832 179.095 104.239 157.25 109.851 146.533C110.049 146.155 110.494 145.986 110.895 146.133C111.295 146.279 111.521 146.702 111.425 147.114C108.802 158.519 130.269 189.135 161.347 218.323C188.686 243.998 229.646 263.266 231.378 264.072C232.562 264.597 233.758 265.11 234.948 265.623L235.281 265.764C235.529 265.871 235.71 266.086 235.772 266.351C235.834 266.61 235.766 266.887 235.591 267.095C221.784 283.187 205.128 291.879 186.086 292.922C184.8 292.985 183.514 293.018 182.245 293.018ZM109.625 150.752C99.8846 171.029 80.9049 225.379 128.791 270.226C140.021 280.739 161.737 292.545 185.996 291.225C204.214 290.226 220.21 282.031 233.555 266.858C232.602 266.447 231.643 266.035 230.701 265.618C228.93 264.794 187.727 245.414 160.197 219.553C131.279 192.406 111.182 164.785 109.625 150.752Z" fill="#003C51"/>
<path d="M508.476 355H417.537C417.069 355 416.691 354.622 416.691 354.154C416.691 353.686 417.069 353.308 417.537 353.308H508.476C508.944 353.308 509.322 353.686 509.322 354.154C509.322 354.622 508.944 355 508.476 355Z" fill="#003C51"/>
<path d="M406.821 355H94.2049C93.7368 355 93.3589 354.622 93.3589 354.154C93.3589 353.686 93.7368 353.308 94.2049 353.308H406.821C407.289 353.308 407.667 353.686 407.667 354.154C407.667 354.622 407.289 355 406.821 355Z" fill="#003C51"/>
<path d="M83.4883 355H0.84605C0.377903 355 0 354.622 0 354.154C0 353.686 0.377903 353.308 0.84605 353.308H83.4883C83.9564 353.308 84.3343 353.686 84.3343 354.154C84.3343 354.622 83.9564 355 83.4883 355Z" fill="#003C51"/>
</svg>
